<?xml version="1.0" encoding="utf-8"?>
<!-- Generator: Adobe Illustrator 28.2.0, SVG Export Plug-In . SVG Version: 6.00 Build 0)  -->
<svg version="1.1" id="Calque_1" xmlns="http://www.w3.org/2000/svg" xmlns:xlink="http://www.w3.org/1999/xlink" x="0px" y="0px"
	 viewBox="0 0 914 206" style="enable-background:new 0 0 914 206;" xml:space="preserve">
<style type="text/css">
	.st0{fill:#12352D;}
</style>
<path class="st0" d="M88.6,2.6H6.8c-3.4,0-6.3,2.9-6.3,6.3v14h28.9v175.8c0,1.4,0.9,4.3,5.7,4.3h14.6V27.8c0.3-2.6,2.3-4.9,5.2-4.9
	h16c6.6,0,9.7-2.9,10.9-5.4L88.6,2.6z M203.1,182.7v-69.6c0-2.6,2.3-4.9,4.9-4.9h8.6c6.6,0,9.4-2.9,10.9-5.4
	c0.9-1.7,4.3-10,6.6-15.2h-30.9V28.1c0-2.9,2-4.9,4.9-4.9h16.6c6.6,0,9.7-3.1,10.9-5.7l6.9-14.9H189c-3.4,0-6,2.6-6.3,5.7V203h45.8
	c6.6,0,9.7-2.9,11.2-5.4c0.9-1.7,4.3-9.7,6.6-14.9L203.1,182.7L203.1,182.7z M403.4,46.1c2.6-1.4,5.7-4.6,5.7-11.2v-7.7
	c0-13.7-11.2-26.3-24.9-26.6h-12.9c-14.3,0-25.8,12.6-25.8,26.6v20.6c0,0-0.9,13.5,9.2,31.8l24.6,46.1c0,0,8.9,15.5,8.9,27.2v22.9
	c0,6.3-4.9,11.2-10.9,11.2s-10.9-4.9-10.9-10.9v-34.9c-5.2,2.3-13.5,6-15.2,6.6c-2.6,1.4-5.7,4.6-5.7,11.2v20.6
	c0.3,13.7,11.2,24.9,24.9,25.5h12.9c14.3,0,25.8-11.5,25.8-25.5V154c0,0,0.9-13.5-9.2-31.8l-24.6-46.4c0,0-8.9-15.2-8.9-26.9V29.8
	c0-6.3,4.9-11.2,10.9-11.2s10.9,4.9,10.9,11.2V53C393.6,50.7,401.7,47,403.4,46.1z M575,46.1c2.6-1.4,5.7-4.6,5.7-11.2v-7.7
	c0-13.7-11.2-26.3-24.9-26.6H543c-14.3,0-25.8,12.6-25.8,26.6v20.6c0,0-0.9,13.5,9.2,31.8l24.6,46.1c0,0,8.9,15.5,8.9,27.2v22.9
	c0,6.3-4.9,11.2-10.9,11.2s-10.9-4.9-10.9-10.9v-34.9c-5.2,2.3-13.5,6-15.2,6.6c-2.6,1.4-5.7,4.6-5.7,11.2v20.6
	c0.3,13.7,11.2,24.9,24.9,25.5H555c14.3,0,25.8-11.5,25.8-25.5V154c0,0,0.9-13.5-9.2-31.8L547,75.9c0,0-8.9-15.2-8.9-26.9V29.8
	c0-6.3,4.9-11.2,10.9-11.2s10.9,4.9,10.9,11.2V53C565.3,50.7,573.3,47,575,46.1z M756.4,203h-22.6l-18-138l-18,138h-22.6L705.5,2.6
	h11.2c8.6,0,10,5.4,10.9,10.9L756.4,203z M913.8,203V2.6h-20.6V118L872,13.8c-1.1-5.7-3.1-11.2-14.6-11.2H848V203h20.6V91.1l22,99.1
	c0.9,4,2.6,12.9,13.7,12.9L913.8,203L913.8,203z"/>
</svg>
